<svg width="74" height="74" viewBox="0 0 74 74" fill="none" xmlns="http://www.w3.org/2000/svg">
<rect width="74" height="74" rx="18" fill="#8732F5"/>
<mask id="mask0_1961_2454" style="mask-type:alpha" maskUnits="userSpaceOnUse" x="5" y="17" width="65" height="50">
<rect x="5" y="17" width="65" height="50" fill="#D9D9D9"/>
</mask>
<g mask="url(#mask0_1961_2454)">
<path d="M24.0601 23.3202V41.0802C24.0601 41.2802 23.9001 41.4302 23.7101 41.4302H17.0501C16.8601 41.4302 16.7001 41.2702 16.7001 41.0802V30.5302C16.7001 30.3402 16.5401 30.1802 16.3501 30.1802H8.16006C7.97006 30.1802 7.81006 30.0202 7.81006 29.8302C7.81006 26.0402 10.8801 22.9802 14.6601 22.9802H23.7201C23.9101 22.9802 24.0701 23.1402 24.0701 23.3302L24.0601 23.3202Z" fill="white"/>
<path d="M36.4899 31.7902V38.7502C36.4899 38.9402 36.3199 39.1002 36.1299 39.1002H34.3699C34.1699 39.1002 34.0099 39.2602 34.0099 39.4602V49.6202H11.5299L11.0999 42.7402L10.6699 49.6202H8.10986V32.9002C8.10986 32.7002 8.26986 32.5502 8.46986 32.5502H15.1299C15.3299 32.5502 15.4799 32.7002 15.4799 32.9002V42.0602C15.4799 42.2602 15.6399 42.4102 15.8399 42.4102H24.6199C24.8899 42.4102 25.1299 42.2402 25.2299 42.0102C25.2699 41.9502 25.2799 41.8902 25.2799 41.8202V23.3302C25.2799 23.1402 25.4399 22.9802 25.6299 22.9802H25.8899C27.4399 22.9802 28.8899 23.4102 30.1199 24.1602C30.1899 24.2102 30.2599 24.2502 30.3299 24.3002C32.5399 25.7502 34.0099 28.2602 34.0099 31.1002C34.0099 31.2902 34.1699 31.4502 34.3699 31.4502H36.1299C36.3199 31.4502 36.4899 31.6102 36.4899 31.8002V31.7902Z" fill="white"/>
<path d="M65.17 31.8202V40.9202C63.26 38.4102 58.73 36.9702 52.08 36.8302C51.72 36.8302 51.36 36.8202 50.99 36.8202C50.69 36.8202 50.39 36.8202 50.1 36.8202C49.8 36.8202 49.51 36.8202 49.23 36.8402C48.92 36.8402 48.61 36.8602 48.31 36.8802C47.9 36.9002 47.5 36.9302 47.12 36.9602C47.12 36.9602 47.1 36.9602 47.09 36.9602C46.59 37.0002 46.11 37.0602 45.64 37.1202C45.17 37.1802 44.71 37.2502 44.28 37.3302C44.18 37.3402 44.09 37.3602 43.99 37.3802C43.91 37.3902 43.83 37.4102 43.76 37.4202C43.22 37.5002 42.66 37.5102 42.11 37.4402C38.74 37.0102 37.64 35.0302 37.65 31.8902C37.67 26.9502 41.71 22.9602 46.65 22.9602H54.11C54.35 22.9602 54.55 23.1602 54.55 23.4002V26.4402C54.55 26.6602 54.39 26.8502 54.17 26.8802C52.47 27.1202 50.21 27.2602 47.8 27.2702C47.56 27.2702 47.37 27.4602 47.36 27.6902V27.7402C47.36 27.9902 47.55 28.2002 47.81 28.2002C49.72 28.1602 52.33 28.0502 54.06 27.8202C54.32 27.7902 54.55 27.9902 54.55 28.2602V31.0302C54.55 31.2402 54.41 31.4202 54.21 31.4602C52.35 31.8502 49.88 31.9302 47.82 31.9302C47.57 31.9302 47.38 32.1302 47.38 32.3702C47.38 32.6102 47.58 32.8102 47.82 32.8102C50.2 32.8302 53.29 32.7302 55.44 32.3302C55.65 32.2902 55.79 32.1102 55.79 31.9002V23.3902C55.79 23.1502 55.98 22.9502 56.22 22.9502C61.14 22.9502 65.12 26.9002 65.16 31.8002L65.17 31.8202Z" fill="white"/>
<path d="M44.2803 37.3402C44.1103 37.3702 43.9303 37.4002 43.7603 37.4402C43.8403 37.4202 43.9203 37.4002 43.9903 37.3902C44.0803 37.3702 44.1803 37.3502 44.2803 37.3402Z" fill="white"/>
<path d="M45.63 37.1302C45.16 37.1902 44.71 37.2602 44.27 37.3402C44.7 37.2602 45.15 37.1902 45.63 37.1302Z" fill="white"/>
<path d="M64.7298 42.1402C64.4298 41.5502 63.9598 41.0202 63.3598 40.5602C63.1098 40.3502 62.8198 40.1702 62.5198 39.9902C59.9498 38.5102 55.7398 37.8302 50.9998 37.8302C48.4998 37.8302 46.1498 38.0202 44.1098 38.4202C39.7598 39.2602 36.8198 41.0502 36.8198 43.9502C36.8198 46.1402 38.4898 47.6902 41.1898 48.6802C41.7998 48.9102 42.4498 49.1102 43.1598 49.2702C45.3998 49.8102 48.0998 50.0602 51.0098 50.0602C58.8398 50.0602 65.1898 48.2102 65.1898 43.9402C65.1898 43.2802 65.0398 42.6802 64.7498 42.1302L64.7298 42.1402ZM51.1598 44.8702C49.0998 44.8702 47.4998 44.1502 47.3898 44.0902C47.1198 43.9602 46.9898 43.6302 47.1198 43.3502C47.2498 43.0702 47.5798 42.9502 47.8598 43.0802C47.9098 43.1002 51.1498 44.5502 54.0898 43.0802C54.3598 42.9402 54.6998 43.0602 54.8398 43.3302C54.9198 43.4902 54.9198 43.6702 54.8398 43.8202C54.7898 43.9302 54.7098 44.0202 54.5898 44.0802C53.9798 44.3802 53.3598 44.5802 52.7598 44.7002C52.1998 44.8102 51.6598 44.8502 51.1498 44.8502L51.1598 44.8702Z" fill="white"/>
<path d="M16.23 54.8303L14.67 55.0604C13.02 55.3004 11.72 57.1703 11.57 59.5103L11.11 66.9204L10.65 59.5103C10.51 57.1703 9.21 55.2904 7.56 55.0604L6 54.8303L7.56 54.6003C8.54 54.4603 9.4 53.7303 9.96 52.6703C10.1 52.4303 10.21 52.1604 10.31 51.8804C10.49 51.3504 10.61 50.7604 10.65 50.1404L10.68 49.6104H11.53L11.56 50.1404C11.61 50.8404 11.75 51.4904 11.97 52.0704C12.1 52.4004 12.25 52.7004 12.43 52.9804C12.99 53.8604 13.78 54.4604 14.66 54.5904L16.22 54.8204L16.23 54.8303Z" fill="white"/>
<path d="M69.4399 22.86C68.6299 22.74 67.9899 21.82 67.9099 20.66L67.6799 17L67.4499 20.66C67.3799 21.82 66.7399 22.74 65.9199 22.86L65.1499 22.97L65.9199 23.08C66.7299 23.2 67.3699 24.12 67.4499 25.28L67.6799 28.94L67.9099 25.28C67.9799 24.12 68.6199 23.2 69.4399 23.08L70.2099 22.97L69.4399 22.86Z" fill="white"/>
</g>
</svg>
