<svg width="98" height="98" viewBox="0 0 98 98" fill="none" xmlns="http://www.w3.org/2000/svg">
<rect x="0.5" y="0.5" width="97" height="97" rx="19.5" fill="white" stroke="#404040"/>
<mask id="mask0_647_123" style="mask-type:alpha" maskUnits="userSpaceOnUse" x="9" y="7" width="82" height="82">
<path d="M9 7H91V89H9V7Z" fill="#D9D9D9"/>
</mask>
<g mask="url(#mask0_647_123)">
<path d="M25.622 63.0634C25.0296 61.8797 24.8604 60.6537 25.1143 59.3854C25.4528 58.0325 26.426 56.8488 28.034 55.8341C28.8803 55.3268 29.9382 54.9041 31.2077 54.5659C32.4772 54.2276 33.9159 53.8894 35.5239 53.5512C36.878 53.2976 38.4014 52.8748 40.094 52.2829C41.7866 51.6911 43.4369 51.0146 45.0449 50.2537V49.7463C43.4369 48.9854 41.7866 48.3512 40.094 47.8439C38.486 47.252 36.9626 46.787 35.5239 46.4488C34.0005 46.026 32.6041 45.6455 31.3347 45.3073C30.0652 44.9691 29.0496 44.5886 28.2879 44.1658C26.6799 43.2358 25.7067 42.0943 25.3681 40.7415C25.1143 39.3041 25.2835 38.0358 25.8759 36.9366C26.553 35.8374 27.5686 35.0764 28.9227 34.6537C30.2768 34.1463 31.7578 34.4 33.3658 35.4146C34.2121 35.922 35.0584 36.6407 35.9047 37.5707C36.8357 38.5008 37.8513 39.5154 38.9515 40.6146C39.8824 41.4602 40.9826 42.5171 42.2521 43.7854C43.6062 44.9691 45.0026 46.0683 46.4413 47.0829L46.9491 46.8293C46.7799 45.0537 46.526 43.3203 46.1874 41.6293C45.8489 39.9382 45.4681 38.4163 45.0449 37.0634C44.6218 35.626 44.2409 34.2732 43.9024 33.0049C43.5639 31.652 43.3946 30.5106 43.3946 29.5805C43.3946 27.6358 43.9024 26.2406 44.918 25.3951C46.0182 24.465 47.203 24 48.4725 24C49.742 24 50.8845 24.465 51.9001 25.3951C53.0003 26.2406 53.5504 27.6358 53.5504 29.5805C53.5504 30.5106 53.3811 31.6098 53.0426 32.878C52.7041 34.1463 52.3232 35.5415 51.9001 37.0634C51.5615 38.4163 51.1807 39.9805 50.7575 41.7561C50.419 43.4472 50.1651 45.1382 49.9959 46.8293L50.3767 47.0829C51.9001 46.1528 53.3388 45.0959 54.6929 43.9122C56.047 42.7285 57.1472 41.6293 57.9935 40.6146C59.0091 39.4309 59.9824 38.374 60.9133 37.4439C61.8442 36.5138 62.7329 35.8374 63.5792 35.4146C65.2718 34.4846 66.7952 34.2309 68.1493 34.6537C69.5034 35.0764 70.4766 35.8374 71.0691 36.9366C71.7461 38.0358 71.9154 39.2618 71.5768 40.6146C71.323 41.9675 70.3497 43.1512 68.6571 44.1658C67.8108 44.6732 66.7529 45.0959 65.4834 45.4341C64.2985 45.7724 62.9445 46.1106 61.4211 46.4488C60.067 46.787 58.5436 47.252 56.851 47.8439C55.243 48.3512 53.5927 48.9854 51.9001 49.7463V50.2537C53.5081 51.0146 55.1584 51.6911 56.851 52.2829C58.5436 52.8748 60.067 53.2976 61.4211 53.5512C63.0291 53.8894 64.4678 54.2699 65.7373 54.6927C67.0914 55.0309 68.1493 55.4114 68.911 55.8341C70.6036 56.7642 71.5768 57.9057 71.8307 59.2585C72.1693 60.6114 72 61.8797 71.3229 63.0634C70.7305 64.1626 69.7573 64.9659 68.4032 65.4732C67.0491 65.8959 65.5257 65.6 63.8331 64.5854C62.9868 64.0781 62.0981 63.3593 61.1672 62.4293C60.2362 61.4992 59.1784 60.4845 57.9935 59.3854C57.0626 58.4553 55.92 57.3984 54.5659 56.2146C53.2118 54.9463 51.8154 53.8049 50.3767 52.7902L49.9959 53.0439C50.1651 54.8195 50.419 56.5951 50.7575 58.3707C51.1807 60.0618 51.5615 61.5837 51.9001 62.9366C52.3232 64.4585 52.7041 65.8537 53.0426 67.122C53.3811 68.3902 53.5504 69.4894 53.5504 70.4195C53.5504 72.2797 53.0003 73.6748 51.9001 74.6049C50.8845 75.535 49.742 76 48.4725 76C47.203 76 46.0182 75.535 44.918 74.6049C43.9024 73.6748 43.3946 72.2797 43.3946 70.4195C43.3946 69.4894 43.5639 68.3902 43.9024 67.122C44.3256 65.7691 44.7064 64.374 45.0449 62.9366C45.4681 61.5837 45.8489 60.0618 46.1874 58.3707C46.526 56.5951 46.7799 54.8195 46.9491 53.0439L46.4413 52.7902C45.0026 53.8049 43.6062 54.9463 42.2521 56.2146C40.9826 57.3984 39.8824 58.4553 38.9515 59.3854C37.8513 60.4845 36.7934 61.5415 35.7778 62.5561C34.8469 63.4862 33.9582 64.1626 33.1119 64.5854C31.5039 65.4309 30.0229 65.6846 28.6688 65.3463C27.3147 64.9236 26.2991 64.1626 25.622 63.0634Z" fill="#404040"/>
</g>
</svg>
